<?xml version="1.0" encoding="UTF-8" standalone="no"?>
<!DOCTYPE svg PUBLIC "-//W3C//DTD SVG 1.1//EN" "http://www.w3.org/Graphics/SVG/1.1/DTD/svg11.dtd">
<svg version="1.1" xmlns="http://www.w3.org/2000/svg" xmlns:xlink="http://www.w3.org/1999/xlink" preserveAspectRatio="xMidYMid meet" viewBox="0 0 170 170" width="75px" height="75px"><defs><path d="M15 38.33C15 38.33 15 38.33 15 38.33C15 25.45 25.45 15 38.33 15C44.56 15 75.67 15 131.67 15C131.67 15 131.67 15 131.67 15C137.85 15 143.79 17.46 148.17 21.83C152.54 26.21 155 32.15 155 38.33C155 47.67 155 122.33 155 131.67C155 144.55 144.55 155 131.67 155C122.33 155 47.67 155 38.33 155C25.45 155 15 144.55 15 131.67C15 119.22 15 88.11 15 38.33Z" id="a14Galv9UF"></path><path d="M45 15L125 15L125 75L45 75L45 15Z" id="c3q839LU3"></path><path d="M35 141.48C53.11 141.48 64.43 141.48 68.96 141.48C77.82 141.48 85 134.3 85 125.45C85 125.45 85 125.45 85 125.45" id="chE0t1xfL"></path><path d="M105 95L85 115L65 95L105 95Z" id="a6K998F3GT"></path><path d="M75 75L95 75L95 95L75 95L75 75Z" id="e1iiMERqAh"></path></defs><g><g><g><g><use xlink:href="#a14Galv9UF" opacity="1" fill="#000000" fill-opacity="0"></use><g><use xlink:href="#a14Galv9UF" opacity="1" fill-opacity="0" stroke="currentColor" stroke-width="8" stroke-opacity="1"></use></g></g><g><use xlink:href="#c3q839LU3" opacity="1" fill="#000000" fill-opacity="0"></use><g><use xlink:href="#c3q839LU3" opacity="1" fill-opacity="0" stroke="currentColor" stroke-width="8" stroke-opacity="1"></use></g></g><g><g><use xlink:href="#chE0t1xfL" opacity="1" fill-opacity="0" stroke="currentColor" stroke-width="8.01" stroke-opacity="1"></use></g></g><g><g><use xlink:href="#a6K998F3GT" opacity="1" fill-opacity="0" stroke="currentColor" stroke-width="8.01" stroke-opacity="1"></use></g></g><g><use xlink:href="#e1iiMERqAh" opacity="1" fill="#000000" fill-opacity="0"></use><g><use xlink:href="#e1iiMERqAh" opacity="1" fill-opacity="0" stroke="currentColor" stroke-width="8" stroke-opacity="1"></use></g></g></g></g></g></svg>
