<?xml version="1.0" encoding="UTF-8" standalone="no"?>
<!DOCTYPE svg PUBLIC "-//W3C//DTD SVG 1.1//EN" "http://www.w3.org/Graphics/SVG/1.1/DTD/svg11.dtd">
<svg version="1.1" xmlns="http://www.w3.org/2000/svg" xmlns:xlink="http://www.w3.org/1999/xlink" preserveAspectRatio="xMidYMid meet" viewBox="0 0 170 170" width="75px" height="75px"><defs><path d="M15 38.33C15 38.33 15 38.33 15 38.33C15 25.45 25.45 15 38.33 15C44.56 15 75.67 15 131.67 15C131.67 15 131.67 15 131.67 15C137.85 15 143.79 17.46 148.17 21.83C152.54 26.21 155 32.15 155 38.33C155 47.67 155 122.33 155 131.67C155 144.55 144.55 155 131.67 155C122.33 155 47.67 155 38.33 155C25.45 155 15 144.55 15 131.67C15 119.22 15 88.11 15 38.33Z" id="a4l00mnEny"></path><path d="M65 15L105 15L105 55L65 55L65 15Z" id="bq8oBWrfG"></path><path d="M85 125L85 65" id="aXzHtGbsD"></path><path d="M55 105L75 135" id="akSzh0QKx"></path><path d="M115 105L95 135" id="bloAs9giZ"></path><path d="M35 125L75 145" id="gk6ohj0JL"></path><path d="M135 123.96L95 145" id="e404eoj7L"></path></defs><g><g><g><g><use xlink:href="#a4l00mnEny" opacity="1" fill="#000000" fill-opacity="0"></use><g><use xlink:href="#a4l00mnEny" opacity="1" fill-opacity="0" stroke="#777777" stroke-width="8" stroke-opacity="1"></use></g></g><g><use xlink:href="#bq8oBWrfG" opacity="1" fill="#000000" fill-opacity="0"></use><g><use xlink:href="#bq8oBWrfG" opacity="1" fill-opacity="0" stroke="#777777" stroke-width="8" stroke-opacity="1"></use></g></g><g><g><use xlink:href="#aXzHtGbsD" opacity="1" fill-opacity="0" stroke="#777777" stroke-width="8.01" stroke-opacity="1"></use></g></g><g><g><use xlink:href="#akSzh0QKx" opacity="1" fill-opacity="0" stroke="#777777" stroke-width="8.01" stroke-opacity="1"></use></g></g><g><g><use xlink:href="#bloAs9giZ" opacity="1" fill-opacity="0" stroke="#777777" stroke-width="8.01" stroke-opacity="1"></use></g></g><g><g><use xlink:href="#gk6ohj0JL" opacity="1" fill-opacity="0" stroke="#777777" stroke-width="8.01" stroke-opacity="1"></use></g></g><g><g><use xlink:href="#e404eoj7L" opacity="1" fill-opacity="0" stroke="#777777" stroke-width="8.01" stroke-opacity="1"></use></g></g></g></g></g></svg>
