<?xml version="1.0" encoding="UTF-8" standalone="no"?>
<!DOCTYPE svg PUBLIC "-//W3C//DTD SVG 1.1//EN" "http://www.w3.org/Graphics/SVG/1.1/DTD/svg11.dtd">
<svg version="1.1" xmlns="http://www.w3.org/2000/svg" xmlns:xlink="http://www.w3.org/1999/xlink" preserveAspectRatio="xMidYMid meet" viewBox="0 0 170 170" width="75px" height="75px"><defs><path d="M15 38.33C15 38.33 15 38.33 15 38.33C15 25.45 25.45 15 38.33 15C44.56 15 75.67 15 131.67 15C131.67 15 131.67 15 131.67 15C137.85 15 143.79 17.46 148.17 21.83C152.54 26.21 155 32.15 155 38.33C155 47.67 155 122.33 155 131.67C155 144.55 144.55 155 131.67 155C122.33 155 47.67 155 38.33 155C25.45 155 15 144.55 15 131.67C15 119.22 15 88.11 15 38.33Z" id="b3TRNHybxX"></path><path d="M31.88 42.5L138.12 42.5L138.12 47.81L31.88 47.81L31.88 42.5Z" id="aNMkzLwb"></path><path d="M75 21.87L95 21.87L95 41.88L75 41.88L75 21.87Z" id="d1fKKg2Jru"></path><path d="M115.93 107.19C115.93 124.27 102.07 138.13 85 138.13C67.93 138.13 54.07 124.27 54.07 107.19C54.07 90.12 67.93 76.26 85 76.26C102.07 76.26 115.93 90.12 115.93 107.19Z" id="cnyrcTQMg"></path><path d="M53.87 47.81L53.87 107.08" id="a4G9Rr6VQL"></path><path d="M115.76 51.27L115.76 110.53" id="d4hytySQxZ"></path><path d="M69.06 79.69L69.06 47.81" id="b1WQ83ELAA"></path><path d="M100.94 79.69L100.94 47.81" id="f2kNHslaLa"></path><path d="M69.06 58.44L53.13 74.38" id="g67vFJwAFy"></path><path d="M114.68 58.44L100.94 69.06" id="aAcp3z5Kv"></path></defs><g><g><g><use xlink:href="#b3TRNHybxX" opacity="1" fill="#000000" fill-opacity="0"></use><g><use xlink:href="#b3TRNHybxX" opacity="1" fill-opacity="0" stroke="#777777" stroke-width="8" stroke-opacity="1"></use></g></g><g><use xlink:href="#aNMkzLwb" opacity="1" fill="#000000" fill-opacity="0"></use><g><use xlink:href="#aNMkzLwb" opacity="1" fill-opacity="0" stroke="#777777" stroke-width="8" stroke-opacity="1"></use></g></g><g><use xlink:href="#d1fKKg2Jru" opacity="1" fill="#000000" fill-opacity="0"></use><g><use xlink:href="#d1fKKg2Jru" opacity="1" fill-opacity="0" stroke="#777777" stroke-width="8" stroke-opacity="1"></use></g></g><g><use xlink:href="#cnyrcTQMg" opacity="1" fill="#1ea5e6" fill-opacity="0"></use><g><use xlink:href="#cnyrcTQMg" opacity="1" fill-opacity="0" stroke="#777777" stroke-width="8" stroke-opacity="1"></use></g></g><g><g><use xlink:href="#a4G9Rr6VQL" opacity="1" fill-opacity="0" stroke="#777777" stroke-width="8" stroke-opacity="1"></use></g></g><g><g><use xlink:href="#d4hytySQxZ" opacity="1" fill-opacity="0" stroke="#777777" stroke-width="8" stroke-opacity="1"></use></g></g><g><g><use xlink:href="#b1WQ83ELAA" opacity="1" fill-opacity="0" stroke="#777777" stroke-width="8" stroke-opacity="1"></use></g></g><g><g><use xlink:href="#f2kNHslaLa" opacity="1" fill-opacity="0" stroke="#777777" stroke-width="8" stroke-opacity="1"></use></g></g><g><g><use xlink:href="#g67vFJwAFy" opacity="1" fill-opacity="0" stroke="#777777" stroke-width="6" stroke-opacity="1"></use></g></g><g><g><use xlink:href="#aAcp3z5Kv" opacity="1" fill-opacity="0" stroke="#777777" stroke-width="6" stroke-opacity="1"></use></g></g></g></g></svg>
