<?xml version="1.0" standalone="no"?>
<!DOCTYPE svg PUBLIC "-//W3C//DTD SVG 1.1//EN" "http://www.w3.org/Graphics/SVG/1.1/DTD/svg11.dtd">
<svg width="110mm" height="110mm" viewBox="0 0 110 110" xmlns="http://www.w3.org/2000/svg" version="1.1">
<polyline z="7.5" points="34.926,32.706 32.706,34.926 30.73,37.366 29.019,40 27.594,42.798 26.468,45.729 25.656,48.763 25.164,51.864 25,55 25.164,58.136 25.656,61.237 26.468,64.271 27.594,67.202 29.019,70 13.948,66 7.369,82.5 4.755,77.371 2.692,71.996 1.202,66.435 0.301,60.749 0,55 0.301,49.251 1.202,43.565 2.692,38.004 4.755,32.629 7.369,27.5 10.504,22.672 14.127,18.198 18.198,14.127 22.672,10.504 27.5,7.369 32.629,4.755 38.004,2.692 43.565,1.202 49.251,0.301 55,0 66,13.948 55,25 51.864,25.164 48.763,25.656 45.729,26.468 42.798,27.594 40,29.019 37.366,30.73 34.926,32.706" fill="#cccccc" stroke="none" stroke-width="0.1mm" />
<polyline z="2.5" points="77.294,34.926 75.074,32.706 72.634,30.73 70,29.019 67.202,27.594 64.271,26.468 61.237,25.656 58.136,25.164 55,25 66,13.948 55,0 60.749,0.301 66.435,1.202 71.996,2.692 77.371,4.755 82.5,7.369 87.328,10.504 91.802,14.127 95.873,18.198 99.496,22.672 102.631,27.5 105.245,32.629 107.308,38.004 108.798,43.565 109.699,49.251 110,55 109.699,60.749 108.798,66.435 107.308,71.996 105.245,77.371 102.631,82.5 85.052,85.052 80.981,70 82.406,67.202 83.532,64.271 84.344,61.237 84.836,58.136 85,55 84.836,51.864 84.344,48.763 83.532,45.729 82.406,42.798 80.981,40 79.27,37.366 77.294,34.926" fill="#aaaaaa" stroke="none" stroke-width="0.1mm" />
<polyline z="5" points="32.706,75.074 34.926,77.294 37.366,79.27 40,80.981 42.798,82.406 45.729,83.532 48.763,84.344 51.864,84.836 55,85 58.136,84.836 61.237,84.344 64.271,83.532 67.202,82.406 70,80.981 72.634,79.27 75.074,77.294 77.294,75.074 79.27,72.634 80.981,70 85.052,85.052 102.631,82.5 99.496,87.328 95.873,91.802 91.802,95.873 87.328,99.496 82.5,102.631 77.371,105.245 71.996,107.308 66.435,108.798 60.749,109.699 55,110 49.251,109.699 43.565,108.798 38.004,107.308 32.629,105.245 27.5,102.631 22.672,99.496 18.198,95.873 14.127,91.802 10.504,87.328 7.369,82.5 13.948,66 29.019,70 30.73,72.634 32.706,75.074" fill="#bbbbbb" stroke="none" stroke-width="0.1mm" />
</svg>